<svg width="100%" height="341" viewBox="0 0 1366 341" fill="none" xmlns="http://www.w3.org/2000/svg">
<path d="M1222.34 280.966L1161.66 272.41M1222.34 280.966L1258.84 240.966L1225.5 254.5M1222.34 280.966L1225.5 254.5M1222.34 280.966L1182.84 305.966M1161.66 272.41L1225.5 254.5M1161.66 272.41L1144.34 233.966L1225.5 254.5M1161.66 272.41L1182.84 305.966M1225.5 254.5L1182.84 305.966" stroke="#085C9A"/>
<circle cx="1183" cy="305" r="3" fill="#085C9A"/>
<circle cx="1226" cy="255" r="3" fill="#085C9A"/>
<circle cx="1222" cy="281" r="3" fill="#085C9A"/>
<circle cx="1162" cy="272" r="3" fill="#085C9A"/>
<circle cx="1183" cy="305" r="1" fill="#63BDFF"/>
<circle cx="1226" cy="255" r="1" fill="#63BDFF"/>
<circle cx="1222" cy="281" r="1" fill="#63BDFF"/>
<circle cx="1162" cy="272" r="1" fill="#63BDFF"/>
<g filter="url(#filter0_f_0_1)">
<path d="M1071.07 276.091L1238.05 150.386M1071.07 276.091L1079.52 460.612L1244.26 228.161M1071.07 276.091L1244.26 228.161M1071.07 276.091L1106.05 120.514M1238.05 150.386L1244.26 228.161M1238.05 150.386L1372.58 201.317L1244.26 228.161M1238.05 150.386L1106.05 120.514M1244.26 228.161L1106.05 120.514" stroke="#085C9A"/>
<circle cx="1107.98" cy="123.238" r="10.2334" transform="rotate(135 1107.98 123.238)" fill="#085C9A"/>
<circle cx="1243.06" cy="229.367" r="10.2334" transform="rotate(135 1243.06 229.367)" fill="#085C9A"/>
<circle cx="1071.8" cy="275.196" r="10.2334" transform="rotate(135 1071.8 275.196)" fill="#085C9A"/>
<circle cx="1238.23" cy="152.182" r="10.2334" transform="rotate(135 1238.23 152.182)" fill="#085C9A"/>
<circle cx="1107.98" cy="123.238" r="3.41114" transform="rotate(135 1107.98 123.238)" fill="#63BDFF"/>
<circle cx="1243.06" cy="229.367" r="3.41114" transform="rotate(135 1243.06 229.367)" fill="#63BDFF"/>
<circle cx="1071.8" cy="275.196" r="3.41114" transform="rotate(135 1071.8 275.196)" fill="#63BDFF"/>
<circle cx="1238.23" cy="152.182" r="3.41114" transform="rotate(135 1238.23 152.182)" fill="#63BDFF"/>
</g>
<path d="M78 157.379L153.138 93L190 170M78 157.379L226 221L190 170M78 157.379L190 170" stroke="#085C9A"/>
<circle cx="189" cy="170" r="3" fill="#085C9A"/>
<circle cx="153" cy="93" r="3" fill="#085C9A"/>
<circle cx="79" cy="157" r="3" fill="#085C9A"/>
<circle cx="226" cy="221" r="3" fill="#085C9A"/>
<circle cx="189" cy="170" r="1" fill="#63BDFF"/>
<circle cx="153" cy="93" r="1" fill="#63BDFF"/>
<circle cx="79" cy="157" r="1" fill="#63BDFF"/>
<circle cx="226" cy="221" r="1" fill="#63BDFF"/>
<g filter="url(#filter1_f_0_1)">
<path d="M164.785 262.945L-21.3792 297.751L-58.2629 101.853M164.785 262.945L-19.6564 15.8441L-58.2629 101.853M164.785 262.945L-58.2629 101.853" stroke="#085C9A"/>
<circle cx="162.765" cy="262.616" r="5.74219" transform="rotate(-150 162.765 262.616)" fill="#085C9A"/>
<circle cx="162.765" cy="262.616" r="1.91406" transform="rotate(-150 162.765 262.616)" fill="#63BDFF"/>
</g>
<g filter="url(#filter2_f_0_1)">
<circle cx="329.049" cy="224.049" r="1.5" transform="rotate(-120 329.049 224.049)" fill="#2979FF"/>
</g>
<g filter="url(#filter3_f_0_1)">
<circle cx="365.049" cy="298.049" r="1.5" transform="rotate(-120 365.049 298.049)" fill="#2979FF"/>
</g>
<g filter="url(#filter4_f_0_1)">
<circle cx="517.049" cy="273.049" r="1.5" transform="rotate(-120 517.049 273.049)" fill="#2979FF"/>
</g>
<g filter="url(#filter5_f_0_1)">
<circle cx="443.049" cy="139.049" r="1.5" transform="rotate(-120 443.049 139.049)" fill="#2979FF"/>
</g>
<g filter="url(#filter6_f_0_1)">
<circle cx="213.049" cy="293.049" r="1.5" transform="rotate(-120 213.049 293.049)" fill="#2979FF"/>
</g>
<g filter="url(#filter7_f_0_1)">
<circle cx="1051.05" cy="176.049" r="1.5" transform="rotate(-120 1051.05 176.049)" fill="#2979FF"/>
</g>
<g filter="url(#filter8_f_0_1)">
<circle cx="1137.05" cy="187.049" r="1.5" transform="rotate(-120 1137.05 187.049)" fill="#2979FF"/>
</g>
<g filter="url(#filter9_f_0_1)">
<circle cx="971.049" cy="254.049" r="1.5" transform="rotate(-120 971.049 254.049)" fill="#2979FF"/>
</g>
<g filter="url(#filter10_f_0_1)">
<circle cx="329.049" cy="224.049" r="0.5" transform="rotate(-120 329.049 224.049)" fill="#73DCFF"/>
</g>
<g filter="url(#filter11_f_0_1)">
<circle cx="365.049" cy="298.049" r="0.5" transform="rotate(-120 365.049 298.049)" fill="#73DCFF"/>
</g>
<g filter="url(#filter12_f_0_1)">
<circle cx="517.049" cy="273.049" r="0.5" transform="rotate(-120 517.049 273.049)" fill="#73DCFF"/>
</g>
<g filter="url(#filter13_f_0_1)">
<circle cx="443.049" cy="139.049" r="0.5" transform="rotate(-120 443.049 139.049)" fill="#73DCFF"/>
</g>
<g filter="url(#filter14_f_0_1)">
<circle cx="213.049" cy="293.049" r="0.5" transform="rotate(-120 213.049 293.049)" fill="#73DCFF"/>
</g>
<g filter="url(#filter15_f_0_1)">
<circle cx="1051.05" cy="176.049" r="0.5" transform="rotate(-120 1051.05 176.049)" fill="#73DCFF"/>
</g>
<g filter="url(#filter16_f_0_1)">
<circle cx="1137.05" cy="187.049" r="0.5" transform="rotate(-120 1137.05 187.049)" fill="#73DCFF"/>
</g>
<g filter="url(#filter17_f_0_1)">
<circle cx="971.049" cy="254.049" r="0.5" transform="rotate(-120 971.049 254.049)" fill="#73DCFF"/>
</g>
<g filter="url(#filter18_f_0_1)">
<circle cx="298.5" cy="172.5" r="4.5" fill="#2979FF"/>
</g>
<g filter="url(#filter19_f_0_1)">
<circle cx="418.5" cy="257.5" r="4.5" fill="#2979FF"/>
</g>
<g filter="url(#filter20_f_0_1)">
<circle cx="1022.5" cy="202.5" r="4.5" fill="#2979FF"/>
</g>
<g filter="url(#filter21_f_0_1)">
<circle cx="809.5" cy="102.5" r="4.5" fill="#2979FF"/>
</g>
<g filter="url(#filter22_f_0_1)">
<circle cx="298.5" cy="172.5" r="2.5" fill="#73DCFF"/>
</g>
<g filter="url(#filter23_f_0_1)">
<circle cx="418.5" cy="257.5" r="2.5" fill="#73DCFF"/>
</g>
<g filter="url(#filter24_f_0_1)">
<circle cx="1022.5" cy="202.5" r="2.5" fill="#73DCFF"/>
</g>
<g filter="url(#filter25_f_0_1)">
<circle cx="809.5" cy="102.5" r="2.5" fill="#73DCFF"/>
</g>
<defs>
<filter id="filter0_f_0_1" x="1051.57" y="103.004" width="332.788" height="369.083" filterUnits="userSpaceOnUse" color-interpolation-filters="sRGB">
<feFlood flood-opacity="0" result="BackgroundImageFix"/>
<feBlend mode="normal" in="SourceGraphic" in2="BackgroundImageFix" result="shape"/>
<feGaussianBlur stdDeviation="5" result="effect1_foregroundBlur_0_1"/>
</filter>
<filter id="filter1_f_0_1" x="-73.3057" y="0.100937" width="251.813" height="313.526" filterUnits="userSpaceOnUse" color-interpolation-filters="sRGB">
<feFlood flood-opacity="0" result="BackgroundImageFix"/>
<feBlend mode="normal" in="SourceGraphic" in2="BackgroundImageFix" result="shape"/>
<feGaussianBlur stdDeviation="5" result="effect1_foregroundBlur_0_1"/>
</filter>
<filter id="filter2_f_0_1" x="324.549" y="219.549" width="9.00049" height="9.0005" filterUnits="userSpaceOnUse" color-interpolation-filters="sRGB">
<feFlood flood-opacity="0" result="BackgroundImageFix"/>
<feBlend mode="normal" in="SourceGraphic" in2="BackgroundImageFix" result="shape"/>
<feGaussianBlur stdDeviation="1.5" result="effect1_foregroundBlur_0_1"/>
</filter>
<filter id="filter3_f_0_1" x="360.549" y="293.549" width="9.00049" height="9.0005" filterUnits="userSpaceOnUse" color-interpolation-filters="sRGB">
<feFlood flood-opacity="0" result="BackgroundImageFix"/>
<feBlend mode="normal" in="SourceGraphic" in2="BackgroundImageFix" result="shape"/>
<feGaussianBlur stdDeviation="1.5" result="effect1_foregroundBlur_0_1"/>
</filter>
<filter id="filter4_f_0_1" x="512.549" y="268.549" width="9.00049" height="9.0005" filterUnits="userSpaceOnUse" color-interpolation-filters="sRGB">
<feFlood flood-opacity="0" result="BackgroundImageFix"/>
<feBlend mode="normal" in="SourceGraphic" in2="BackgroundImageFix" result="shape"/>
<feGaussianBlur stdDeviation="1.5" result="effect1_foregroundBlur_0_1"/>
</filter>
<filter id="filter5_f_0_1" x="438.549" y="134.549" width="9.00049" height="9.0005" filterUnits="userSpaceOnUse" color-interpolation-filters="sRGB">
<feFlood flood-opacity="0" result="BackgroundImageFix"/>
<feBlend mode="normal" in="SourceGraphic" in2="BackgroundImageFix" result="shape"/>
<feGaussianBlur stdDeviation="1.5" result="effect1_foregroundBlur_0_1"/>
</filter>
<filter id="filter6_f_0_1" x="208.549" y="288.549" width="9.00049" height="9.0005" filterUnits="userSpaceOnUse" color-interpolation-filters="sRGB">
<feFlood flood-opacity="0" result="BackgroundImageFix"/>
<feBlend mode="normal" in="SourceGraphic" in2="BackgroundImageFix" result="shape"/>
<feGaussianBlur stdDeviation="1.5" result="effect1_foregroundBlur_0_1"/>
</filter>
<filter id="filter7_f_0_1" x="1046.55" y="171.549" width="9.00049" height="9.0005" filterUnits="userSpaceOnUse" color-interpolation-filters="sRGB">
<feFlood flood-opacity="0" result="BackgroundImageFix"/>
<feBlend mode="normal" in="SourceGraphic" in2="BackgroundImageFix" result="shape"/>
<feGaussianBlur stdDeviation="1.5" result="effect1_foregroundBlur_0_1"/>
</filter>
<filter id="filter8_f_0_1" x="1132.55" y="182.549" width="9.00049" height="9.0005" filterUnits="userSpaceOnUse" color-interpolation-filters="sRGB">
<feFlood flood-opacity="0" result="BackgroundImageFix"/>
<feBlend mode="normal" in="SourceGraphic" in2="BackgroundImageFix" result="shape"/>
<feGaussianBlur stdDeviation="1.5" result="effect1_foregroundBlur_0_1"/>
</filter>
<filter id="filter9_f_0_1" x="966.549" y="249.549" width="9.00049" height="9.0005" filterUnits="userSpaceOnUse" color-interpolation-filters="sRGB">
<feFlood flood-opacity="0" result="BackgroundImageFix"/>
<feBlend mode="normal" in="SourceGraphic" in2="BackgroundImageFix" result="shape"/>
<feGaussianBlur stdDeviation="1.5" result="effect1_foregroundBlur_0_1"/>
</filter>
<filter id="filter10_f_0_1" x="327.549" y="222.549" width="3.00024" height="3.00017" filterUnits="userSpaceOnUse" color-interpolation-filters="sRGB">
<feFlood flood-opacity="0" result="BackgroundImageFix"/>
<feBlend mode="normal" in="SourceGraphic" in2="BackgroundImageFix" result="shape"/>
<feGaussianBlur stdDeviation="0.5" result="effect1_foregroundBlur_0_1"/>
</filter>
<filter id="filter11_f_0_1" x="363.549" y="296.549" width="3.00024" height="3.00017" filterUnits="userSpaceOnUse" color-interpolation-filters="sRGB">
<feFlood flood-opacity="0" result="BackgroundImageFix"/>
<feBlend mode="normal" in="SourceGraphic" in2="BackgroundImageFix" result="shape"/>
<feGaussianBlur stdDeviation="0.5" result="effect1_foregroundBlur_0_1"/>
</filter>
<filter id="filter12_f_0_1" x="515.549" y="271.549" width="3.00024" height="3.00017" filterUnits="userSpaceOnUse" color-interpolation-filters="sRGB">
<feFlood flood-opacity="0" result="BackgroundImageFix"/>
<feBlend mode="normal" in="SourceGraphic" in2="BackgroundImageFix" result="shape"/>
<feGaussianBlur stdDeviation="0.5" result="effect1_foregroundBlur_0_1"/>
</filter>
<filter id="filter13_f_0_1" x="441.549" y="137.549" width="3.00024" height="3.00017" filterUnits="userSpaceOnUse" color-interpolation-filters="sRGB">
<feFlood flood-opacity="0" result="BackgroundImageFix"/>
<feBlend mode="normal" in="SourceGraphic" in2="BackgroundImageFix" result="shape"/>
<feGaussianBlur stdDeviation="0.5" result="effect1_foregroundBlur_0_1"/>
</filter>
<filter id="filter14_f_0_1" x="211.549" y="291.549" width="3.00024" height="3.00017" filterUnits="userSpaceOnUse" color-interpolation-filters="sRGB">
<feFlood flood-opacity="0" result="BackgroundImageFix"/>
<feBlend mode="normal" in="SourceGraphic" in2="BackgroundImageFix" result="shape"/>
<feGaussianBlur stdDeviation="0.5" result="effect1_foregroundBlur_0_1"/>
</filter>
<filter id="filter15_f_0_1" x="1049.55" y="174.549" width="3.00024" height="3.00017" filterUnits="userSpaceOnUse" color-interpolation-filters="sRGB">
<feFlood flood-opacity="0" result="BackgroundImageFix"/>
<feBlend mode="normal" in="SourceGraphic" in2="BackgroundImageFix" result="shape"/>
<feGaussianBlur stdDeviation="0.5" result="effect1_foregroundBlur_0_1"/>
</filter>
<filter id="filter16_f_0_1" x="1135.55" y="185.549" width="3.00024" height="3.00017" filterUnits="userSpaceOnUse" color-interpolation-filters="sRGB">
<feFlood flood-opacity="0" result="BackgroundImageFix"/>
<feBlend mode="normal" in="SourceGraphic" in2="BackgroundImageFix" result="shape"/>
<feGaussianBlur stdDeviation="0.5" result="effect1_foregroundBlur_0_1"/>
</filter>
<filter id="filter17_f_0_1" x="969.549" y="252.549" width="3.00024" height="3.00017" filterUnits="userSpaceOnUse" color-interpolation-filters="sRGB">
<feFlood flood-opacity="0" result="BackgroundImageFix"/>
<feBlend mode="normal" in="SourceGraphic" in2="BackgroundImageFix" result="shape"/>
<feGaussianBlur stdDeviation="0.5" result="effect1_foregroundBlur_0_1"/>
</filter>
<filter id="filter18_f_0_1" x="289" y="163" width="19" height="19" filterUnits="userSpaceOnUse" color-interpolation-filters="sRGB">
<feFlood flood-opacity="0" result="BackgroundImageFix"/>
<feBlend mode="normal" in="SourceGraphic" in2="BackgroundImageFix" result="shape"/>
<feGaussianBlur stdDeviation="2.5" result="effect1_foregroundBlur_0_1"/>
</filter>
<filter id="filter19_f_0_1" x="409" y="248" width="19" height="19" filterUnits="userSpaceOnUse" color-interpolation-filters="sRGB">
<feFlood flood-opacity="0" result="BackgroundImageFix"/>
<feBlend mode="normal" in="SourceGraphic" in2="BackgroundImageFix" result="shape"/>
<feGaussianBlur stdDeviation="2.5" result="effect1_foregroundBlur_0_1"/>
</filter>
<filter id="filter20_f_0_1" x="1013" y="193" width="19" height="19" filterUnits="userSpaceOnUse" color-interpolation-filters="sRGB">
<feFlood flood-opacity="0" result="BackgroundImageFix"/>
<feBlend mode="normal" in="SourceGraphic" in2="BackgroundImageFix" result="shape"/>
<feGaussianBlur stdDeviation="2.5" result="effect1_foregroundBlur_0_1"/>
</filter>
<filter id="filter21_f_0_1" x="800" y="93" width="19" height="19" filterUnits="userSpaceOnUse" color-interpolation-filters="sRGB">
<feFlood flood-opacity="0" result="BackgroundImageFix"/>
<feBlend mode="normal" in="SourceGraphic" in2="BackgroundImageFix" result="shape"/>
<feGaussianBlur stdDeviation="2.5" result="effect1_foregroundBlur_0_1"/>
</filter>
<filter id="filter22_f_0_1" x="294" y="168" width="9" height="9" filterUnits="userSpaceOnUse" color-interpolation-filters="sRGB">
<feFlood flood-opacity="0" result="BackgroundImageFix"/>
<feBlend mode="normal" in="SourceGraphic" in2="BackgroundImageFix" result="shape"/>
<feGaussianBlur stdDeviation="1" result="effect1_foregroundBlur_0_1"/>
</filter>
<filter id="filter23_f_0_1" x="414" y="253" width="9" height="9" filterUnits="userSpaceOnUse" color-interpolation-filters="sRGB">
<feFlood flood-opacity="0" result="BackgroundImageFix"/>
<feBlend mode="normal" in="SourceGraphic" in2="BackgroundImageFix" result="shape"/>
<feGaussianBlur stdDeviation="1" result="effect1_foregroundBlur_0_1"/>
</filter>
<filter id="filter24_f_0_1" x="1018" y="198" width="9" height="9" filterUnits="userSpaceOnUse" color-interpolation-filters="sRGB">
<feFlood flood-opacity="0" result="BackgroundImageFix"/>
<feBlend mode="normal" in="SourceGraphic" in2="BackgroundImageFix" result="shape"/>
<feGaussianBlur stdDeviation="1" result="effect1_foregroundBlur_0_1"/>
</filter>
<filter id="filter25_f_0_1" x="805" y="98" width="9" height="9" filterUnits="userSpaceOnUse" color-interpolation-filters="sRGB">
<feFlood flood-opacity="0" result="BackgroundImageFix"/>
<feBlend mode="normal" in="SourceGraphic" in2="BackgroundImageFix" result="shape"/>
<feGaussianBlur stdDeviation="1" result="effect1_foregroundBlur_0_1"/>
</filter>
</defs>
</svg>
