<svg width="189" height="206" viewBox="0 0 189 206" fill="none" xmlns="http://www.w3.org/2000/svg">
<g opacity="0.2">
<path d="M114.015 186.212L23.2745 118.46L59.4162 85.5589M114.015 186.212L147.927 4.98493L59.4162 85.5589M114.015 186.212L59.4162 85.5589" stroke="white"/>
<circle cx="59.3569" cy="85.882" r="3.43349" transform="rotate(-102.663 59.3569 85.882)" fill="white"/>
<circle cx="23.3092" cy="118.615" r="3.43349" transform="rotate(-102.663 23.3092 118.615)" fill="white"/>
<circle cx="113.341" cy="185.19" r="3.43349" transform="rotate(-102.663 113.341 185.19)" fill="white"/>
<circle cx="147.927" cy="4.98489" r="3.43349" transform="rotate(-102.663 147.927 4.98489)" fill="white"/>
<circle cx="59.3569" cy="85.8819" r="1.1445" transform="rotate(-102.663 59.3569 85.8819)" fill="#00C0FF"/>
<circle cx="23.3092" cy="118.615" r="1.1445" transform="rotate(-102.663 23.3092 118.615)" fill="#00C0FF"/>
<circle cx="113.341" cy="185.19" r="1.1445" transform="rotate(-102.663 113.341 185.19)" fill="#00C0FF"/>
<circle cx="147.927" cy="4.9849" r="1.1445" transform="rotate(-102.663 147.927 4.9849)" fill="#00C0FF"/>
</g>
</svg>

