<svg width="227" height="203" viewBox="0 0 227 203" fill="none" xmlns="http://www.w3.org/2000/svg">
<g opacity="0.2">
<path d="M147 174.5L22.3827 123.578M147 174.5L202.5 67.0001M147 174.5L119 130M22.3827 123.578L119 130M22.3827 123.578L147 10.5001L119 79.5001M202.5 67.0001L119 130M202.5 67.0001L119 79.5001M119 130L119 79.5001" stroke="white"/>
<circle cx="120.103" cy="79.1027" r="3.43349" transform="rotate(-102.663 120.103 79.1027)" fill="white"/>
<circle cx="22.4175" cy="123.732" r="3.43349" transform="rotate(-102.663 22.4175 123.732)" fill="white"/>
<circle cx="146.103" cy="174.103" r="3.43349" transform="rotate(-102.663 146.103 174.103)" fill="white"/>
<circle cx="119.103" cy="129.103" r="3.43349" transform="rotate(-102.663 119.103 129.103)" fill="white"/>
<circle cx="202.103" cy="67.1027" r="3.43349" transform="rotate(-102.663 202.103 67.1027)" fill="white"/>
<circle cx="120.103" cy="79.1027" r="1.1445" transform="rotate(-102.663 120.103 79.1027)" fill="#00C0FF"/>
<circle cx="22.4175" cy="123.733" r="1.1445" transform="rotate(-102.663 22.4175 123.733)" fill="#00C0FF"/>
<circle cx="146.103" cy="174.103" r="1.1445" transform="rotate(-102.663 146.103 174.103)" fill="#00C0FF"/>
<circle cx="119.103" cy="129.103" r="1.1445" transform="rotate(-102.663 119.103 129.103)" fill="#00C0FF"/>
<circle cx="202.103" cy="67.1028" r="1.1445" transform="rotate(-102.663 202.103 67.1028)" fill="#00C0FF"/>
</g>
</svg>

