<svg width="208" height="176" viewBox="0 0 208 176" fill="none" xmlns="http://www.w3.org/2000/svg">
<g opacity="0.2">
<path d="M70.4968 47.3838L175.637 62.2104M70.4968 47.3838L57.9864 140.458M70.4968 47.3838L7.24387 116.702L104.289 109.662M70.4968 47.3838L104.289 109.662M70.4968 47.3838L138.949 4.05988L104.289 109.662M175.637 62.2104L104.289 109.662M175.637 62.2104L205.668 128.833L104.289 109.662M57.9864 140.458L145.88 166.091L104.289 109.662M57.9864 140.458L104.289 109.662" stroke="white"/>
<circle cx="57.2162" cy="140.904" r="5.19887" transform="rotate(-180 57.2162 140.904)" fill="white"/>
<circle cx="104.006" cy="109.711" r="5.19887" transform="rotate(-180 104.006 109.711)" fill="white"/>
<circle cx="71.0798" cy="47.3243" r="5.19887" transform="rotate(-180 71.0798 47.3243)" fill="white"/>
<circle cx="175.057" cy="62.9209" r="5.19887" transform="rotate(-180 175.057 62.9209)" fill="white"/>
<circle cx="57.2161" cy="140.904" r="1.73296" transform="rotate(-180 57.2161 140.904)" fill="#00C0FF"/>
<circle cx="104.006" cy="109.711" r="1.73296" transform="rotate(-180 104.006 109.711)" fill="#00C0FF"/>
<circle cx="71.0798" cy="47.3243" r="1.73296" transform="rotate(-180 71.0798 47.3243)" fill="#00C0FF"/>
<circle cx="175.057" cy="62.9209" r="1.73296" transform="rotate(-180 175.057 62.9209)" fill="#00C0FF"/>
</g>
</svg>

